<svg width="438" height="118" viewBox="0 0 438 118" fill="none" xmlns="http://www.w3.org/2000/svg">
<path d="M37.6073 86H21.0891L42.5441 22.4112H63.0056L84.4606 86H67.9424L53.0077 38.4326H52.5109L37.6073 86ZM35.4028 60.9743H69.9295V72.6488H35.4028V60.9743ZM110.612 86.9004C105.623 86.9004 101.318 85.9172 97.6953 83.9508C94.0936 81.9636 91.3199 79.1381 89.3741 75.4743C87.4491 71.7898 86.4865 67.4119 86.4865 62.3405C86.4865 57.414 87.4594 53.1085 89.4052 49.424C91.3509 45.7188 94.0936 42.8416 97.6332 40.7923C101.173 38.7224 105.344 37.6874 110.146 37.6874C113.541 37.6874 116.646 38.2153 119.461 39.2709C122.276 40.3266 124.708 41.8894 126.757 43.9594C128.807 46.0293 130.4 48.5857 131.539 51.6285C132.677 54.6506 133.247 58.1178 133.247 62.03V65.818H91.7959V57H119.119C119.099 55.3855 118.716 53.9469 117.97 52.6842C117.225 51.4215 116.201 50.4383 114.897 49.7345C113.613 49.01 112.133 48.6478 110.457 48.6478C108.759 48.6478 107.238 49.0307 105.892 49.7966C104.547 50.5418 103.481 51.5664 102.694 52.8705C101.908 54.1539 101.494 55.6132 101.452 57.2484V66.2217C101.452 68.1674 101.835 69.8751 102.601 71.3448C103.367 72.7937 104.454 73.9219 105.861 74.7291C107.269 75.5364 108.945 75.9401 110.891 75.9401C112.237 75.9401 113.458 75.7538 114.555 75.3812C115.652 75.0086 116.594 74.46 117.38 73.7356C118.167 73.0111 118.757 72.121 119.15 71.0653L133.091 71.469C132.512 74.5946 131.239 77.3166 129.272 79.6349C127.327 81.9326 124.77 83.7231 121.603 85.0064C118.436 86.2691 114.772 86.9004 110.612 86.9004ZM141.001 86V38.3084H155.75V47.0022H156.246C157.116 43.8559 158.534 41.5168 160.5 39.9851C162.467 38.4326 164.754 37.6564 167.362 37.6564C168.066 37.6564 168.79 37.7081 169.535 37.8116C170.281 37.8944 170.974 38.029 171.616 38.2153V51.4112C170.891 51.1628 169.939 50.9661 168.759 50.8212C167.6 50.6763 166.565 50.6039 165.654 50.6039C163.853 50.6039 162.228 51.0075 160.78 51.8148C159.351 52.6014 158.223 53.7088 157.395 55.1371C156.588 56.5446 156.184 58.2006 156.184 60.105V86H141.001ZM197.588 86.9004C192.579 86.9004 188.274 85.8758 184.672 83.8266C181.091 81.7566 178.327 78.8794 176.382 75.1949C174.457 71.4897 173.494 67.1945 173.494 62.3095C173.494 57.4037 174.457 53.1085 176.382 49.424C178.327 45.7188 181.091 42.8416 184.672 40.7923C188.274 38.7224 192.579 37.6874 197.588 37.6874C202.598 37.6874 206.893 38.7224 210.474 40.7923C214.075 42.8416 216.839 45.7188 218.764 49.424C220.71 53.1085 221.683 57.4037 221.683 62.3095C221.683 67.1945 220.71 71.4897 218.764 75.1949C216.839 78.8794 214.075 81.7566 210.474 83.8266C206.893 85.8758 202.598 86.9004 197.588 86.9004ZM197.682 75.4433C199.503 75.4433 201.045 74.8844 202.308 73.7666C203.571 72.6488 204.533 71.0964 205.195 69.1092C205.878 67.1221 206.22 64.8244 206.22 62.2163C206.22 59.5668 205.878 57.2484 205.195 55.2613C204.533 53.2741 203.571 51.7217 202.308 50.6039C201.045 49.4861 199.503 48.9272 197.682 48.9272C195.798 48.9272 194.204 49.4861 192.9 50.6039C191.617 51.7217 190.633 53.2741 189.95 55.2613C189.288 57.2484 188.957 59.5668 188.957 62.2163C188.957 64.8244 189.288 67.1221 189.95 69.1092C190.633 71.0964 191.617 72.6488 192.9 73.7666C194.204 74.8844 195.798 75.4433 197.682 75.4433ZM229.46 86V22.4112H244.83V49.2998H245.668L266.688 22.4112H284.79L262.248 50.7902L285.194 86H266.813L250.977 61.0054L244.83 68.7677V86H229.46ZM293.841 86V38.3084H309.024V86H293.841ZM301.448 32.7506C299.316 32.7506 297.484 32.0468 295.952 30.6393C294.42 29.211 293.655 27.4929 293.655 25.4851C293.655 23.4979 294.42 21.8006 295.952 20.393C297.484 18.9648 299.316 18.2506 301.448 18.2506C303.601 18.2506 305.433 18.9648 306.944 20.393C308.475 21.8006 309.241 23.4979 309.241 25.4851C309.241 27.4929 308.475 29.211 306.944 30.6393C305.433 32.0468 303.601 32.7506 301.448 32.7506ZM340.95 86.9004C335.92 86.9004 331.604 85.8655 328.003 83.7955C324.422 81.7256 321.669 78.8483 319.744 75.1638C317.819 71.4586 316.856 67.1738 316.856 62.3095C316.856 57.4244 317.819 53.1396 319.744 49.4551C321.689 45.7499 324.453 42.8623 328.034 40.7923C331.636 38.7224 335.931 37.6874 340.919 37.6874C345.328 37.6874 349.168 38.4844 352.439 40.0782C355.73 41.6721 358.296 43.9283 360.139 46.8469C362.002 49.7449 362.985 53.1499 363.088 57.0621H348.899C348.609 54.6196 347.781 52.7049 346.415 51.318C345.07 49.9312 343.31 49.2377 341.137 49.2377C339.377 49.2377 337.835 49.7345 336.51 50.7281C335.186 51.701 334.151 53.1499 333.405 55.075C332.681 56.9793 332.319 59.3391 332.319 62.1542C332.319 64.9693 332.681 67.3498 333.405 69.2955C334.151 71.2206 335.186 72.6799 336.51 73.6735C337.835 74.6463 339.377 75.1328 341.137 75.1328C342.544 75.1328 343.786 74.8326 344.863 74.2323C345.96 73.6321 346.86 72.7523 347.564 71.5932C348.268 70.4133 348.713 68.985 348.899 67.3084H363.088C362.943 71.2413 361.96 74.6774 360.139 77.6167C358.338 80.556 355.802 82.8433 352.532 84.4786C349.282 86.0931 345.421 86.9004 340.95 86.9004ZM384.551 73.4872L384.613 55.3855H386.725L400.138 38.3084H417.339L397.406 62.7752H393.4L384.551 73.4872ZM370.858 86V22.4112H386.042V86H370.858ZM400.479 86L387.998 66.1906L397.995 55.4165L418.022 86H400.479Z" fill="white"/>
<path d="M230.477 113V97.3332H234.263V103.958H234.47L239.649 97.3332H244.109L238.555 104.325L244.208 113H239.68L235.778 106.842L234.263 108.754V113H230.477ZM249.57 113V101.25H253.311V113H249.57ZM251.444 99.8806C250.919 99.8806 250.468 99.7072 250.09 99.3604C249.713 99.0085 249.524 98.5852 249.524 98.0905C249.524 97.6009 249.713 97.1828 250.09 96.836C250.468 96.4841 250.919 96.3081 251.444 96.3081C251.975 96.3081 252.426 96.4841 252.798 96.836C253.176 97.1828 253.364 97.6009 253.364 98.0905C253.364 98.5852 253.176 99.0085 252.798 99.3604C252.426 99.7072 251.975 99.8806 251.444 99.8806ZM264.408 113.222C263.169 113.222 262.105 112.967 261.218 112.457C260.336 111.947 259.657 111.238 259.183 110.33C258.709 109.417 258.472 108.362 258.472 107.163C258.472 105.96 258.709 104.904 259.183 103.996C259.662 103.083 260.343 102.372 261.226 101.862C262.113 101.352 263.171 101.097 264.4 101.097C265.487 101.097 266.433 101.293 267.238 101.686C268.049 102.079 268.682 102.635 269.135 103.354C269.594 104.068 269.837 104.907 269.862 105.87H266.366C266.295 105.269 266.091 104.797 265.754 104.455C265.423 104.113 264.989 103.943 264.454 103.943C264.02 103.943 263.64 104.065 263.314 104.31C262.988 104.55 262.733 104.907 262.549 105.381C262.371 105.85 262.281 106.431 262.281 107.125C262.281 107.819 262.371 108.405 262.549 108.884C262.733 109.359 262.988 109.718 263.314 109.963C263.64 110.203 264.02 110.323 264.454 110.323C264.801 110.323 265.107 110.249 265.372 110.101C265.642 109.953 265.864 109.736 266.037 109.45C266.211 109.16 266.32 108.808 266.366 108.395H269.862C269.827 109.364 269.584 110.21 269.135 110.935C268.692 111.659 268.067 112.222 267.261 112.625C266.461 113.023 265.509 113.222 264.408 113.222ZM278.381 109.917L278.397 105.457H278.917L282.222 101.25H286.46L281.548 107.278H280.562L278.381 109.917ZM275.008 113V97.3332H278.749V113H275.008ZM282.306 113L279.231 108.119L281.694 105.465L286.628 113H282.306ZM297.555 113V101.25H299.36V113H297.555ZM298.473 99.2915C298.121 99.2915 297.818 99.1717 297.563 98.932C297.313 98.6923 297.188 98.4042 297.188 98.0676C297.188 97.731 297.313 97.4428 297.563 97.2032C297.818 96.9635 298.121 96.8436 298.473 96.8436C298.825 96.8436 299.126 96.9635 299.376 97.2032C299.631 97.4428 299.758 97.731 299.758 98.0676C299.758 98.4042 299.631 98.6923 299.376 98.932C299.126 99.1717 298.825 99.2915 298.473 99.2915ZM307.777 101.25V102.78H301.688V101.25H307.777ZM303.462 98.4348H305.268V109.634C305.268 110.144 305.342 110.527 305.49 110.782C305.643 111.031 305.836 111.2 306.071 111.286C306.311 111.368 306.563 111.409 306.828 111.409C307.027 111.409 307.19 111.399 307.318 111.378C307.445 111.353 307.547 111.332 307.624 111.317L307.991 112.939C307.869 112.985 307.698 113.031 307.479 113.076C307.259 113.127 306.981 113.153 306.645 113.153C306.135 113.153 305.635 113.043 305.145 112.824C304.661 112.605 304.258 112.271 303.937 111.822C303.621 111.373 303.462 110.807 303.462 110.124V98.4348ZM323.956 108.196V101.25H325.762V113H323.956V111.011H323.834C323.558 111.608 323.13 112.115 322.549 112.533C321.967 112.946 321.233 113.153 320.346 113.153C319.611 113.153 318.958 112.992 318.387 112.671C317.816 112.345 317.367 111.855 317.041 111.202C316.714 110.544 316.551 109.716 316.551 108.716V101.25H318.357V108.594C318.357 109.45 318.596 110.134 319.076 110.644C319.56 111.154 320.177 111.409 320.927 111.409C321.376 111.409 321.832 111.294 322.296 111.065C322.765 110.835 323.158 110.483 323.474 110.009C323.796 109.535 323.956 108.93 323.956 108.196ZM329.068 117.406V101.25H330.812V103.116H331.027C331.159 102.912 331.343 102.652 331.577 102.336C331.817 102.015 332.159 101.729 332.602 101.479C333.051 101.224 333.658 101.097 334.423 101.097C335.413 101.097 336.285 101.344 337.039 101.839C337.794 102.334 338.383 103.035 338.806 103.943C339.23 104.85 339.441 105.921 339.441 107.156C339.441 108.4 339.23 109.479 338.806 110.391C338.383 111.299 337.797 112.003 337.047 112.503C336.297 112.997 335.433 113.245 334.454 113.245C333.699 113.245 333.095 113.12 332.641 112.87C332.187 112.615 331.838 112.327 331.593 112.006C331.348 111.679 331.159 111.409 331.027 111.195H330.874V117.406H329.068ZM330.843 107.125C330.843 108.012 330.973 108.795 331.233 109.473C331.493 110.147 331.873 110.674 332.373 111.057C332.873 111.434 333.485 111.623 334.209 111.623C334.964 111.623 335.594 111.424 336.098 111.026C336.608 110.623 336.991 110.083 337.246 109.405C337.506 108.721 337.636 107.961 337.636 107.125C337.636 106.299 337.509 105.554 337.254 104.891C337.004 104.223 336.624 103.695 336.114 103.308C335.609 102.915 334.974 102.719 334.209 102.719C333.475 102.719 332.857 102.905 332.358 103.277C331.858 103.644 331.481 104.159 331.226 104.822C330.971 105.48 330.843 106.248 330.843 107.125ZM351.712 113.275C350.967 113.275 350.291 113.135 349.684 112.855C349.078 112.569 348.596 112.159 348.239 111.623C347.882 111.082 347.703 110.43 347.703 109.665C347.703 108.992 347.836 108.446 348.101 108.028C348.366 107.604 348.721 107.273 349.164 107.033C349.608 106.793 350.098 106.615 350.633 106.498C351.174 106.375 351.717 106.278 352.262 106.207C352.976 106.115 353.555 106.046 353.999 106C354.448 105.949 354.774 105.865 354.978 105.748C355.187 105.631 355.292 105.427 355.292 105.136V105.075C355.292 104.32 355.085 103.734 354.672 103.315C354.264 102.897 353.645 102.688 352.813 102.688C351.951 102.688 351.276 102.877 350.786 103.254C350.296 103.632 349.952 104.034 349.753 104.463L348.04 103.851C348.346 103.137 348.754 102.581 349.264 102.183C349.779 101.78 350.34 101.5 350.947 101.342C351.559 101.179 352.16 101.097 352.752 101.097C353.129 101.097 353.563 101.143 354.053 101.235C354.547 101.321 355.024 101.502 355.483 101.778C355.947 102.053 356.332 102.469 356.638 103.025C356.944 103.581 357.097 104.325 357.097 105.258V113H355.292V111.409H355.2C355.078 111.664 354.874 111.937 354.588 112.227C354.302 112.518 353.922 112.765 353.448 112.969C352.974 113.173 352.395 113.275 351.712 113.275ZM351.987 111.654C352.701 111.654 353.303 111.513 353.792 111.233C354.287 110.952 354.659 110.59 354.909 110.147C355.164 109.703 355.292 109.236 355.292 108.747V107.094C355.215 107.186 355.047 107.27 354.787 107.347C354.532 107.418 354.236 107.482 353.9 107.538C353.568 107.589 353.244 107.635 352.928 107.676C352.617 107.711 352.364 107.742 352.171 107.768C351.701 107.829 351.263 107.928 350.855 108.066C350.452 108.198 350.126 108.4 349.876 108.67C349.631 108.935 349.509 109.297 349.509 109.756C349.509 110.384 349.741 110.858 350.205 111.179C350.674 111.496 351.268 111.654 351.987 111.654ZM368.256 105.932V113H366.451V101.25H368.195V103.086H368.348C368.624 102.489 369.042 102.01 369.603 101.648C370.164 101.28 370.888 101.097 371.775 101.097C372.571 101.097 373.267 101.26 373.864 101.586C374.46 101.908 374.924 102.397 375.256 103.055C375.587 103.708 375.753 104.534 375.753 105.534V113H373.948V105.656C373.948 104.733 373.708 104.014 373.229 103.499C372.749 102.979 372.091 102.719 371.255 102.719C370.679 102.719 370.164 102.844 369.71 103.094C369.261 103.343 368.907 103.708 368.646 104.187C368.386 104.667 368.256 105.248 368.256 105.932ZM383.826 113.245C382.765 113.245 381.834 112.992 381.033 112.487C380.238 111.983 379.616 111.276 379.167 110.368C378.723 109.461 378.501 108.4 378.501 107.186C378.501 105.962 378.723 104.894 379.167 103.981C379.616 103.068 380.238 102.359 381.033 101.854C381.834 101.349 382.765 101.097 383.826 101.097C384.886 101.097 385.815 101.349 386.61 101.854C387.411 102.359 388.033 103.068 388.477 103.981C388.925 104.894 389.15 105.962 389.15 107.186C389.15 108.4 388.925 109.461 388.477 110.368C388.033 111.276 387.411 111.983 386.61 112.487C385.815 112.992 384.886 113.245 383.826 113.245ZM383.826 111.623C384.631 111.623 385.294 111.416 385.815 111.003C386.335 110.59 386.72 110.047 386.97 109.374C387.22 108.701 387.344 107.972 387.344 107.186C387.344 106.401 387.22 105.669 386.97 104.991C386.72 104.312 386.335 103.764 385.815 103.346C385.294 102.928 384.631 102.719 383.826 102.719C383.02 102.719 382.357 102.928 381.837 103.346C381.316 103.764 380.931 104.312 380.682 104.991C380.432 105.669 380.307 106.401 380.307 107.186C380.307 107.972 380.432 108.701 380.682 109.374C380.931 110.047 381.316 110.59 381.837 111.003C382.357 111.416 383.02 111.623 383.826 111.623ZM397.016 101.25V102.78H390.927V101.25H397.016ZM392.701 98.4348H394.507V109.634C394.507 110.144 394.581 110.527 394.728 110.782C394.881 111.031 395.075 111.2 395.31 111.286C395.55 111.368 395.802 111.409 396.067 111.409C396.266 111.409 396.429 111.399 396.557 111.378C396.684 111.353 396.786 111.332 396.863 111.317L397.23 112.939C397.108 112.985 396.937 113.031 396.717 113.076C396.498 113.127 396.22 113.153 395.884 113.153C395.374 113.153 394.874 113.043 394.384 112.824C393.9 112.605 393.497 112.271 393.176 111.822C392.859 111.373 392.701 110.807 392.701 110.124V98.4348ZM404.379 113.245C403.277 113.245 402.329 112.985 401.533 112.465C400.737 111.944 400.125 111.228 399.697 110.315C399.269 109.402 399.054 108.359 399.054 107.186C399.054 105.993 399.274 104.94 399.712 104.027C400.156 103.109 400.773 102.392 401.564 101.877C402.359 101.357 403.287 101.097 404.348 101.097C405.174 101.097 405.919 101.25 406.582 101.556C407.245 101.862 407.788 102.29 408.211 102.841C408.635 103.392 408.897 104.034 408.999 104.769H407.194C407.056 104.233 406.75 103.759 406.276 103.346C405.807 102.928 405.174 102.719 404.379 102.719C403.675 102.719 403.058 102.902 402.527 103.269C402.002 103.632 401.592 104.144 401.296 104.807C401.005 105.465 400.86 106.238 400.86 107.125C400.86 108.033 401.003 108.823 401.288 109.496C401.579 110.17 401.987 110.692 402.512 111.065C403.043 111.437 403.665 111.623 404.379 111.623C404.848 111.623 405.274 111.541 405.656 111.378C406.039 111.215 406.363 110.98 406.628 110.674C406.893 110.368 407.082 110.001 407.194 109.573H408.999C408.897 110.266 408.645 110.891 408.242 111.447C407.844 111.998 407.316 112.436 406.658 112.763C406.006 113.084 405.246 113.245 404.379 113.245ZM413.444 105.932V113H411.638V97.3332H413.444V103.086H413.597C413.872 102.479 414.285 101.997 414.836 101.64C415.392 101.278 416.131 101.097 417.054 101.097C417.855 101.097 418.556 101.258 419.158 101.579C419.76 101.895 420.227 102.382 420.558 103.04C420.895 103.693 421.063 104.524 421.063 105.534V113H419.258V105.656C419.258 104.723 419.015 104.001 418.531 103.491C418.051 102.976 417.386 102.719 416.534 102.719C415.943 102.719 415.412 102.844 414.943 103.094C414.479 103.343 414.112 103.708 413.841 104.187C413.576 104.667 413.444 105.248 413.444 105.932ZM426.752 97.3332L426.599 108.594H424.825L424.672 97.3332H426.752ZM425.712 113.122C425.335 113.122 425.011 112.987 424.741 112.717C424.47 112.447 424.335 112.123 424.335 111.745C424.335 111.368 424.47 111.044 424.741 110.774C425.011 110.504 425.335 110.368 425.712 110.368C426.089 110.368 426.413 110.504 426.684 110.774C426.954 111.044 427.089 111.368 427.089 111.745C427.089 111.995 427.025 112.225 426.898 112.434C426.775 112.643 426.61 112.811 426.401 112.939C426.197 113.061 425.967 113.122 425.712 113.122Z" fill="white"/>
<line y1="-0.633584" x2="111" y2="-0.633584" transform="matrix(-1 0 0 1 113 108)" stroke="#E9113C" stroke-width="1.26717"/>
<line y1="-0.633584" x2="38" y2="-0.633584" transform="matrix(-1.05353e-08 1 1 1.8136e-07 2.00006 70)" stroke="#E9113C" stroke-width="1.26717"/>
<line y1="-0.633584" x2="115" y2="-0.633584" transform="matrix(1 8.7636e-08 8.72101e-08 -1 321 3.05176e-05)" stroke="#E9113C" stroke-width="1.26717"/>
<line y1="-0.633584" x2="38" y2="-0.633584" transform="matrix(9.8125e-08 -1 -1 -2.62688e-07 436 38)" stroke="#E9113C" stroke-width="1.26717"/>
</svg>
