<svg width="1920" height="2296" viewBox="0 0 1920 2296" fill="none" xmlns="http://www.w3.org/2000/svg">
<path d="M565.165 2141.37C497.48 2317.47 162.621 2404.44 217.88 2053.8C226.941 1996.3 227.852 1897.3 217.88 1776.8C208.745 1666.42 29.9171 1606.02 -24.9769 1463.38C-111.067 1239.7 210.818 1083.78 159.594 966.195C92.5044 812.183 -112.921 745.361 -226.548 661.101C-333.516 581.78 -401.651 454.505 -427.812 323.652C-473.709 94.0879 -390.417 -146.487 -160.977 -158.456C-46.1201 -164.448 105.361 -113.152 295.594 25.4897C380.647 87.4771 455.647 138.562 522.302 179.869C693.861 286.186 647.737 34.7053 851.736 25.4897C967.975 20.2388 1089.38 237.343 1181.28 121.539C1246.63 39.1948 1321.62 -60.7168 1428.72 -163.435C1616.79 -343.824 1851.94 -370.384 1885.2 -112.931C1900.9 8.60107 1871.61 193.423 1771.14 455.228C1706.85 622.767 1866.77 616.861 1885.2 831.557C1903.62 1046.25 1752.95 1145.26 1862.02 1234.12L1864.21 1235.9C1947.34 1303.62 2036.01 1375.85 2084.43 1514.58C2126.14 1634.08 2122.16 1752.44 2084.43 1843.38C2044.05 1940.72 1965.03 2006.65 1862.02 2008.99C1758.66 2011.34 1631.15 1949.66 1494.29 1791.42C1404.05 1687.1 1342.94 1929.85 1181.28 1905.03C1019.62 1880.22 997.153 1645.99 900.308 1713.93C732.081 1831.94 644.437 1935.12 565.165 2141.37Z" stroke="#53FC18"/>
<path d="M802.815 1204.57C792.515 1231.6 744.509 1224.51 742.08 1195.21C739.313 1161.85 756.176 1118.37 754.227 1084.93C750.463 1020.37 727.654 1001.99 682.237 967.961C665.958 955.784 655.589 936.245 651.608 916.157C644.623 880.915 657.299 843.983 692.216 842.146C709.696 841.226 732.749 849.101 761.7 870.384C774.644 879.901 786.057 887.743 796.201 894.084C840.36 923.899 881.459 900.537 896.489 885.129C906.434 872.488 917.846 857.15 934.144 841.381C962.767 813.689 1006.11 817.317 1003.61 849.134C1000.09 894.084 923.344 1061.87 1003.61 1091.13C1040.9 1104.72 1039.68 1135.5 1033.93 1149.46C1027.79 1164.4 1015.76 1174.53 1000.09 1174.88C984.357 1175.25 958.299 1149.46 944.123 1141.48C891.792 1112.04 845.097 1096.82 802.815 1204.57Z" stroke="#53FC18"/>
<path d="M268.44 1978.54C219.398 2297.74 525.403 2218.17 587.457 2056.73C663.431 1859.35 747.422 1766.85 905.248 1662.14C994.01 1600.69 1015.37 1814.56 1163.39 1837.8C1311.42 1861.05 1367.97 1640.76 1450.79 1735.66C1576.74 1879.59 1693.85 1934.8 1788.46 1931.31C1882.45 1928.56 1954.5 1867.56 1990.91 1778C2024.9 1694.25 2027.71 1585.56 1988.06 1476.23C1936.32 1346.26 1861.59 1265.37 1785.7 1199.22C1686.57 1116.94 1822.73 1026.06 1804.69 830.6C1786.64 635.138 1639.5 641.054 1696.69 489.873C1786.62 253.101 1812.23 86.3308 1797.04 -23.1011C1766.1 -256.641 1550.87 -231.602 1378.13 -67.1157C1279.08 26.7036 1208.91 117.459 1147.45 191.032C1062.9 295.821 951.402 97.5876 844.462 101.507C657.531 108.931 698.315 337.074 541.166 239.938C479.466 201.949 410.304 155.314 332.121 98.9585C155.857 -27.0149 16.875 -70.3523 -86.9951 -61.7209C-295.577 -49.9248 -371.035 169.849 -328.809 379.515C-304.539 499.372 -241.939 615.885 -143.871 688.602C-36.3539 768.334 152.633 830.788 214.019 976.737C260.714 1085.23 -32.5002 1228.82 45.5013 1434.07C95.1183 1565.57 257.509 1622.26 265.946 1724.19C275.13 1835.15 275.448 1926.04 268.44 1978.54Z" stroke="#53FC18"/>
<path d="M319.753 1900.51C276.999 2187.24 553.704 2115.32 610.036 1969.07C682.601 1781.24 762.819 1699.72 910.014 1608.64C990.562 1553.88 1010.78 1746.68 1144.95 1768.28C1279.12 1789.88 1331.03 1592.78 1406.31 1677.94C1521.17 1807.1 1627.72 1855.65 1713.43 1851.04C1798.26 1847.88 1863.25 1792.02 1895.63 1710.53C1925.84 1634.25 1927.46 1535.6 1889.94 1436.78C1835.37 1317.23 1775.83 1228.01 1707.91 1164.19C1618.88 1088.76 1740.33 1006.31 1722.69 830.72C1705.04 655.132 1570.89 661.038 1620.91 526.708C1700.17 315.742 1722.06 167.568 1707.4 70.5927C1678.82 -138.271 1483.82 -114.836 1326.68 33.207C1235.82 117.819 1170.57 199.122 1113.08 263.685C1036.02 357.116 934.581 178.406 837.096 180.981C667.507 186.592 702.892 390.652 560.382 303.016C503.727 268.47 440.504 226.438 369.306 175.899C207.267 63.0066 80.9874 27.7629 -11.7437 38.999C-199.161 50.5815 -266.676 248.831 -228.181 437.911C-205.838 546.377 -148.864 651.744 -59.84 717.618C41.4115 792.554 213.683 850.432 269.275 987.827C311.374 1086.87 47.2595 1217.65 117.058 1403.79C161.325 1523.73 307.041 1576.51 314.768 1669.66C323.151 1770.71 324.697 1853.19 319.753 1900.51Z" stroke="#53FC18"/>
<path d="M370.296 1825.25C333.766 2080.53 581.597 2016.01 632.294 1884.42C701.564 1705.48 778.135 1634.63 914.928 1556.86C987.387 1508.58 1006.5 1681.02 1127.02 1701.05C1247.54 1721.07 1294.9 1546.44 1362.75 1622.18C1466.7 1737.03 1562.84 1779.11 1639.79 1773.37C1715.59 1769.78 1773.61 1718.86 1802.02 1645.14C1828.5 1576.06 1828.94 1487.08 1793.47 1398.43C1735.99 1288.86 1691.54 1191.02 1631.51 1129.3C1552.42 1060.45 1659.36 986.129 1642.09 829.774C1624.82 673.42 1503.46 679.336 1546.37 561.364C1615.08 375.431 1633.29 245.308 1619.14 160.433C1592.87 -24.5168 1417.8 -2.60327 1276.02 129.536C1193.2 205.249 1132.78 277.396 1079.16 333.189C1009.46 415.604 917.939 255.765 829.758 257.009C677.249 260.828 707.288 441.552 579.197 363.096C527.5 331.868 470.117 294.287 405.793 249.379C257.729 149.156 143.957 121.87 62.2222 135.744C-104.319 147.153 -163.994 324.6 -129.172 493.782C-108.721 591.252 -57.2853 685.855 22.8329 745.125C117.977 815.532 273.799 869.042 323.683 998.371C361.251 1088.31 125.829 1206.77 187.532 1374.47C226.518 1483.28 355.782 1532.35 362.812 1617.05C370.406 1708.55 373.184 1782.92 370.296 1825.25Z" stroke="#53FC18"/>
<path d="M422.569 1750.19C392.328 1974.03 610.845 1916.9 655.816 1799.98C721.669 1629.9 794.459 1569.74 920.608 1505.27C984.851 1463.49 1002.82 1615.56 1109.48 1634.01C1216.14 1652.47 1258.85 1500.31 1319.17 1566.62C1412.02 1667.17 1497.58 1702.77 1565.63 1695.88C1632.26 1691.88 1683.21 1645.89 1707.6 1579.95C1730.3 1518.07 1729.55 1438.76 1696.21 1360.28C1635.92 1260.69 1606.65 1154.2 1554.6 1094.58C1485.61 1032.3 1577.83 966.111 1560.97 828.996C1544.11 691.882 1435.74 697.809 1471.47 596.203C1529.51 435.314 1544.01 323.25 1530.39 250.482C1506.48 89.4539 1351.65 109.848 1225.47 226.079C1150.85 292.89 1095.35 355.878 1045.71 402.894C983.505 474.29 902.051 333.327 823.331 333.237C688.172 335.263 712.812 492.641 599.368 423.369C552.72 395.459 501.28 362.329 443.944 323.055C310.117 235.505 209.053 216.185 138.461 232.705C-6.90738 243.942 -58.6368 400.582 -27.5488 549.86C-9.02711 636.331 36.7797 720.17 107.85 772.834C196.719 838.715 335.816 887.859 379.903 1009.13C412.873 1089.98 206.563 1196.11 260.06 1345.36C293.694 1443.04 406.278 1488.4 412.597 1564.65C419.389 1646.6 423.394 1712.87 422.569 1750.19Z" stroke="#53FC18"/>
<path d="M473.832 1671.79C449.876 1863.69 639.074 1814.08 678.318 1712.08C740.744 1551.25 809.739 1501.91 925.232 1450.89C981.254 1415.69 998.074 1547.05 1090.87 1563.9C1183.67 1580.74 1221.74 1451.39 1274.51 1508.13C1356.25 1594.15 1431.24 1623.19 1490.38 1615.18C1547.85 1610.77 1591.73 1569.82 1612.09 1511.8C1631.01 1457.25 1629.09 1387.8 1597.88 1319.65C1534.79 1230.27 1520.68 1115.38 1476.61 1057.99C1417.71 1002.43 1495.22 944.519 1478.77 826.95C1462.32 709.381 1366.96 715.306 1395.51 630.292C1442.88 494.804 1453.67 401.05 1440.59 340.55C1419.04 203.802 1284.46 222.63 1173.89 322.693C1107.47 380.454 1056.9 434.142 1011.24 472.279C956.526 532.495 885.148 410.724 815.892 409.3C698.089 409.529 717.333 543.211 618.539 483.276C576.942 458.747 531.447 430.143 481.104 396.59C361.522 321.909 273.172 310.596 213.72 329.722C89.5254 340.762 45.7414 476.244 73.0937 605.285C89.6855 680.564 129.861 753.45 191.88 799.391C274.462 860.599 396.828 905.264 435.117 1018.2C463.488 1089.77 286.292 1183.34 331.584 1313.82C359.867 1400.15 455.77 1441.69 461.379 1509.32C467.368 1581.54 472.598 1639.55 473.832 1671.79Z" stroke="#53FC18"/>
<path d="M524.319 1596.53C506.6 1756.96 666.872 1714.75 700.47 1627.43C759.6 1475.45 824.946 1436.79 930.022 1399.1C977.942 1370.39 993.651 1481.38 1072.78 1496.65C1151.91 1511.93 1185.41 1405.07 1230.74 1452.37C1301.55 1524.07 1366.12 1546.62 1416.48 1537.48C1464.91 1532.64 1501.8 1496.63 1518.18 1446.38C1533.36 1399.04 1530.25 1339.26 1501.11 1281.29C1435.09 1201.88 1436.12 1078.32 1399.94 1023C1351.01 974.027 1413.97 924.249 1397.9 825.929C1381.82 727.61 1299.26 733.547 1320.7 664.91C1357.5 554.482 1364.6 478.799 1352.03 430.415C1332.8 317.603 1218.18 334.912 1122.99 419.059C1064.63 467.915 1018.89 512.439 977.116 541.792C929.776 590.981 868.325 488.095 808.389 485.335C707.697 483.768 721.583 594.09 637.234 543.342C600.603 522.133 560.959 497.981 517.501 470.065C411.917 408.065 336.096 404.729 287.662 426.508C184.382 437.378 148.453 552.044 172.126 661.172C186.823 725.449 221.451 787.566 274.548 826.899C351.016 883.586 456.904 923.885 489.475 1028.78C513.307 1091.25 364.856 1172.48 402.038 1284.51C425.029 1359.71 504.45 1397.54 509.359 1456.72C514.558 1519.39 521.024 1569.29 524.319 1596.53Z" stroke="#53FC18"/>
<path d="M574.1 1522.12C562.663 1651.07 693.585 1616.26 721.449 1543.61C777.122 1400.45 838.642 1372.5 933.021 1348.15C972.711 1325.94 987.267 1416.54 1052.52 1430.25C1117.77 1443.95 1146.61 1359.6 1184.39 1397.46C1244.08 1454.84 1298.05 1470.9 1339.5 1460.6C1378.75 1455.34 1408.57 1424.27 1420.93 1381.8C1432.32 1341.65 1428.04 1291.56 1401.04 1243.76C1332.27 1174.34 1348.42 1042.02 1320.23 988.777C1281.4 946.378 1329.65 904.736 1313.99 825.681C1298.34 746.626 1228.8 752.577 1243.06 700.336C1269.2 614.993 1272.59 557.403 1260.57 521.148C1243.71 432.294 1149.36 448.087 1069.8 516.307C1019.65 556.252 978.863 591.603 941.088 612.16C901.251 650.311 849.889 566.323 799.432 562.222C716.116 558.853 724.611 645.794 654.93 604.239C623.362 586.35 589.673 566.655 553.217 544.38C461.911 495.071 398.82 499.732 361.531 524.179C279.438 534.882 251.457 628.718 271.389 717.922C284.151 771.19 313.139 822.532 357.175 855.255C427.322 907.428 516.453 943.366 543.219 1040.22C562.449 1093.59 443.135 1162.5 472.107 1256.07C489.746 1320.14 552.477 1354.26 556.675 1404.98C561.07 1458.1 568.752 1499.89 574.1 1522.12Z" stroke="#53FC18"/>
<path d="M625.411 1446.87C620.205 1544.29 722.484 1516.89 744.766 1458.93C797.307 1324.54 855.36 1307.33 939.58 1296.35C971.256 1280.65 984.743 1350.83 1036.47 1362.98C1088.19 1375.12 1112.54 1313.3 1142.97 1341.72C1191.86 1384.74 1235.54 1394.3 1268.31 1382.84C1298.59 1377.15 1321.49 1351.02 1329.89 1316.33C1337.56 1283.39 1332.07 1242.98 1307.05 1205.37C1235.12 1145.92 1266.54 1004.75 1246.19 953.559C1217.25 917.738 1251.03 884.24 1235.7 824.474C1220.37 764.709 1163.48 770.677 1170.63 734.861C1186.24 674.646 1185.93 635.18 1174.37 611.078C1159.79 546.219 1085.2 560.497 1020.83 612.771C978.627 643.795 942.553 669.962 908.56 681.703C876.007 708.796 834.454 643.727 793.198 638.279C726.807 633.1 729.945 696.625 674.554 664.273L673.02 663.435C646.803 649.122 619.386 634.154 590.3 617.847C512.763 581.247 462.057 593.935 435.719 621.073C374.378 631.615 354.2 704.599 370.5 773.855C381.399 816.105 404.906 856.662 440.119 882.768C504.351 930.441 577.213 962.02 598.32 1050.87C613.05 1095.14 522.236 1151.7 543.152 1226.8C555.53 1279.73 601.9 1310.15 605.41 1352.42C609.025 1395.99 617.974 1429.65 625.411 1446.87Z" stroke="#53FC18"/>
<path d="M676.461 1368.37C677.532 1433.83 750.37 1413.96 766.896 1370.95C815.913 1245.94 870.064 1239.53 943.485 1241.97C966.901 1232.85 979.218 1282.31 1017.01 1292.83C1054.81 1303.35 1074.47 1264.35 1097.32 1283.19C1135.04 1311.68 1168.08 1314.68 1191.91 1302.12C1213 1296.03 1228.79 1274.95 1233.16 1248.2C1237.05 1222.61 1230.4 1192.07 1207.55 1164.82C1132.99 1115.6 1179.45 966.229 1167.1 917.319C1148.28 888.237 1167.33 863.03 1152.44 822.817C1137.55 782.604 1093.74 788.563 1093.72 769.326C1098.66 734.5 1094.65 713.33 1083.66 701.484C1071.46 660.902 1017.2 673.603 968.533 709.7C934.591 731.667 903.509 748.533 873.556 751.41C848.538 767.329 817.116 721.465 785.38 714.694C736.428 707.73 734.18 747.562 693.509 724.555C671.919 713.376 649.986 702.67 627.363 691.767C564.188 668.036 526.262 688.69 511.085 718.394C470.979 728.726 458.764 780.535 471.306 829.539C480.258 860.585 498.103 890.177 524.22 909.55C582.051 952.508 638.082 979.587 653.365 1060.03C663.48 1094.99 601.879 1138.97 614.571 1195.27C621.589 1236.82 651.234 1263.4 654.028 1297.03C656.836 1330.84 666.987 1356.24 676.461 1368.37Z" stroke="#53FC18"/>
<path d="M724.564 1294.5C731.883 1328.24 775.513 1315.84 786.332 1287.64C831.901 1171.73 882.236 1176.07 945.002 1191.9C960.227 1189.32 971.395 1218.22 995.377 1227.15C1019.36 1236.07 1034.39 1219.73 1049.72 1229.06C1076.37 1243.12 1098.86 1239.6 1113.82 1225.91C1125.78 1219.41 1134.53 1203.33 1134.9 1184.43C1135.02 1166.12 1127.2 1145.36 1106.5 1128.36C1029.21 1089.26 1090.71 931.404 1086.3 884.67C1077.53 862.246 1081.95 845.255 1067.47 824.453C1053 803.651 1022.16 809.612 1015.01 806.865C1009.34 797.281 1001.64 794.308 991.186 794.657C981.347 778.197 947.264 789.351 914.15 809.393C888.388 822.375 862.236 830.003 836.265 824.048C818.715 828.859 797.335 802.049 775.034 793.946C743.377 785.189 735.765 801.479 709.692 787.743C693.143 779.917 677.138 773.705 661.484 768.484C612.524 757.536 587.268 786.173 583.18 818.495C564.156 828.639 559.85 859.444 568.668 888.356C575.694 908.294 587.926 927.014 605.024 939.716C656.558 978.06 695.908 1000.71 705.415 1072.93C710.95 1098.69 678.343 1130.2 682.868 1167.87C684.561 1198.17 697.598 1220.98 699.682 1246.05C701.69 1270.22 713.05 1287.42 724.564 1294.5Z" stroke="#53FC18"/>
</svg>
