<svg width="1920" height="406" viewBox="0 0 1920 406" fill="none" xmlns="http://www.w3.org/2000/svg">
<path d="M2067.71 1491.24C2235.64 1571.76 2286.59 1892.2 1943.79 1805.91C1887.58 1791.76 1789.24 1781.08 1668.36 1778.39C1557.63 1775.93 1478.59 1936.44 1330.94 1973.39C1099.38 2031.33 978.502 1716.12 856.143 1752.13C695.882 1799.3 607.642 1983.94 511.803 2081.37C421.58 2173.09 287.795 2223.89 154.906 2235.25C-78.2326 2255.18 -308.613 2153.72 -296.172 1938.89C-289.944 1831.35 -222.867 1695.4 -64.8243 1532.04C5.83689 1459 64.5908 1394.24 112.736 1336.28C236.654 1187.1 -18.3001 1205.06 -5.82037 1014.19C1.29063 905.439 230.05 813.965 124.65 716.885C49.7037 647.856 -41.6878 568.103 -132.464 458.179C-291.882 265.135 -293.344 43.5439 -33.8156 38.1526C88.6969 35.6075 269.368 81.2403 519.036 200.796C678.81 277.305 689.903 127.814 905.342 131.987C1120.78 136.16 1203.25 286.291 1303.18 193.56L1305.18 191.703C1381.34 121.021 1462.56 45.6365 1605.65 14.331C1728.9 -12.6356 1846.17 2.83398 1932.6 46.9976C2025.1 94.2624 2082.28 174.392 2073.67 270.543C2065.04 367.018 1990.18 479.622 1818.32 591.338C1705.01 664.994 1939.9 746.012 1898.08 894.074C1856.25 1042.14 1620.97 1039.79 1678.24 1136.71C1777.73 1305.08 1871.04 1396.94 2067.71 1491.24Z" stroke="#53FC18"/>
<path d="M1161.41 1176.89C1187.2 1189.16 1175.05 1233.16 1145.66 1232.51C1112.2 1231.77 1070.76 1211.75 1037.3 1210.24C972.7 1207.33 952.005 1226.75 913.349 1265.66C899.513 1279.6 878.985 1287.32 858.588 1289.03C822.804 1292.03 787.425 1276.56 789.302 1243.86C790.242 1227.5 800.518 1206.81 824.753 1181.97C835.589 1170.86 844.598 1161.01 851.98 1152.2C886.312 1114.04 867.442 1073.45 853.716 1057.93C842.201 1047.41 828.16 1035.26 814.21 1018.52C789.71 989.117 797.916 949.119 829.289 954.604C873.611 962.354 1032.31 1050.48 1069.91 978.646C1087.38 945.278 1117.86 949.476 1131.14 956.209C1145.34 963.415 1154.13 975.618 1152.83 990.251C1151.52 1004.93 1123.11 1026.64 1113.68 1039.04C1078.84 1084.85 1058.75 1126.81 1161.41 1176.89Z" stroke="#53FC18"/>
<path d="M1874.32 1751.36C2186.52 1828.73 2139.86 1535.9 1985.91 1462.08C1797.71 1371.73 1714.64 1284.33 1627.27 1126.97C1575.59 1038.21 1790.51 1039.57 1829.33 904.053C1868.15 768.532 1655.1 693.99 1758.25 626.303C1914.74 523.324 1982.05 419.759 1988.63 331.324C1995.86 243.533 1942.85 170.377 1857.66 127.581C1777.99 87.6065 1670.21 74.1957 1557.29 100.251C1422.57 135.521 1334.2 197.064 1260.38 261.159C1168.05 345.285 1092.12 209.471 895.849 206.856C699.576 204.242 689.847 341.838 545.587 273.561C319.693 166.304 156.581 125.889 46.1551 129.161C-189.35 134.773 -187.287 337.668 -42.0549 514.847C40.7261 616.396 123.525 690.752 190.161 755.295C285.389 844.428 76.4446 928.556 68.9955 1028.52C56.5454 1203.32 287.729 1188.01 174.468 1324.68C130.147 1378.36 76.4376 1438.13 12.1051 1505.33C-131.858 1656.94 -189.696 1782.04 -192.134 1879.62C-202.534 2075.01 7.99385 2167.1 220.957 2148.61C342.712 2137.92 465.209 2091.21 547.92 2007.12C638.609 1914.93 720.762 1745.16 872.399 1702.5C985.234 1669.8 1096.9 1957.09 1309.27 1904.85C1445.29 1871.71 1518.89 1726.14 1621.15 1728.41C1732.45 1730.88 1822.86 1739.62 1874.32 1751.36Z" stroke="#53FC18"/>
<path d="M1802.18 1695.83C2082.75 1764.12 2040.59 1499.33 1901.15 1432.34C1722.08 1346.12 1649.52 1263.32 1574.58 1117.22C1528.68 1036.77 1722.53 1037.1 1758.24 914.318C1793.95 791.533 1603.47 723.614 1696.14 661.979C1836.76 567.861 1896.34 473.476 1900.85 393.212C1906.7 313.91 1858.05 247.847 1780.46 209.598C1707.82 173.886 1609.89 162.574 1507.65 187.699C1382.99 226.635 1287.95 273.212 1217.29 330.106C1132.84 405.519 1063.74 284.236 887.268 283.22C710.8 282.204 702.44 407.703 574.174 347.786C372.808 253.026 227.793 217.918 129.81 221.932C-80.9072 227.8 -78.2934 411.698 52.2429 572.722C126.737 665.732 200.659 734.565 258.757 794.516C343.485 875.552 155.022 952.247 147.24 1043.27C134.826 1201.74 341.489 1189.07 239.228 1313.06C198.866 1362.38 150.364 1417.07 92.5559 1478.35C-36.8904 1618.01 -85.3326 1732.09 -83.9983 1819.55C-92.3652 1995.21 97.6024 2077.78 289.699 2060.72C399.924 2050.69 510.74 2008.11 585.688 1931.76C670.943 1844.92 746.772 1690.27 889.289 1652.15C992.236 1622.79 1094.26 1881.71 1286.75 1835.21C1410.71 1805.91 1478.66 1675.47 1572.1 1677.53C1673.46 1679.77 1755.65 1686.52 1802.18 1695.83Z" stroke="#53FC18"/>
<path d="M1732.7 1641.29C1982.67 1700.66 1944.81 1463.49 1819.34 1403.21C1648.75 1320.93 1586.43 1242.59 1523.61 1107.5C1483.29 1035.23 1656.78 1034.57 1689.48 924.334C1722.18 814.099 1553.56 752.658 1636.07 696.997C1761.31 611.621 1813.34 526.281 1815.8 454.063C1820.28 383.127 1775.8 324.043 1705.51 290.266C1639.63 258.747 1551.2 249.496 1459.28 273.711C1344.23 316.351 1242.23 348.014 1174.49 397.783C1097.64 464.583 1035.08 357.629 877.777 358.174C720.474 358.718 713.48 472.315 600.727 420.638C423.133 338.186 295.676 308.3 209.78 313.042C23.0861 319.13 26.302 484.32 142.653 629.469C209.152 714.101 274.481 777.536 324.27 833.003C398.826 906.086 230.179 975.429 222.06 1057.66C209.678 1200.05 392.568 1190.03 300.966 1301.51C264.429 1346.54 220.972 1396.24 169.493 1451.67C54.1269 1579.58 14.9238 1682.81 20.0484 1760.29C13.7239 1916.5 183.838 1989.69 355.759 1974.08C454.849 1964.72 554.376 1926.22 621.811 1857.51C701.914 1775.91 771.655 1636.14 905.546 1602.54C998.967 1576.49 1091.78 1807.47 1265.08 1766.68C1377.41 1741.19 1439.92 1625.7 1524.88 1627.57C1616.67 1629.59 1690.92 1634.39 1732.7 1641.29Z" stroke="#53FC18"/>
<path d="M1663.62 1585.16C1882.98 1635.55 1849.36 1426.41 1737.87 1372.92C1575.73 1294.7 1523.63 1220.95 1472.92 1097.08C1438.18 1033.11 1591.3 1031.49 1620.97 934.007C1650.64 836.522 1503.87 781.636 1576.21 732.062C1686.04 655.599 1730.51 579.462 1730.89 515.417C1733.97 452.973 1693.65 400.964 1630.67 371.706C1571.54 344.423 1492.61 337.234 1411.03 360.481C1305.6 406.732 1196.61 423.403 1131.8 465.946C1062.56 524.003 1006.53 431.555 868.397 433.633C730.267 435.711 724.664 537.205 627.422 493.84C473.599 423.812 363.706 399.179 289.904 404.626C127.248 410.892 131.1 557.085 233.288 686.124C291.806 762.241 348.55 820.179 390.034 871.071C454.426 936.088 305.618 997.928 297.176 1071.22C284.851 1197.27 443.955 1189.96 363.038 1288.71C330.337 1329.38 291.936 1373.98 246.8 1423.47C145.546 1539.38 115.613 1631.56 124.55 1698.94C120.301 1835.41 270.569 1899.14 422.302 1885.02C510.251 1876.37 598.476 1842.05 658.383 1781.1C733.321 1704.9 796.945 1580.26 922.21 1551.26C1006.1 1528.59 1089.74 1731.24 1243.83 1696.25C1344.53 1674.64 1401.57 1574.32 1478.06 1576.01C1560.27 1577.82 1626.59 1580.68 1663.62 1585.16Z" stroke="#53FC18"/>
<path d="M1591.09 1529.63C1779.36 1571 1750.11 1389.91 1652.85 1343.23C1499.55 1269.13 1457.81 1199.98 1419.33 1087.37C1390.27 1031.71 1522.68 1029.1 1549.28 944.365C1575.87 859.629 1451.29 811.336 1513.31 767.836C1607.51 700.268 1644.34 633.33 1642.66 577.462C1644.36 523.511 1608.3 478.588 1552.77 453.864C1500.54 430.83 1431.27 425.719 1360.2 448.01C1264.63 497.877 1148.89 499.597 1087.15 534.928C1025.65 584.255 976.292 506.326 857.642 509.964C738.991 513.602 734.764 602.988 653.26 567.954C523.563 510.382 431.482 491.025 369.936 497.191C231.674 503.669 236.117 630.855 323.884 743.754C374.273 811.337 422.293 863.757 455.37 910.061C509.441 966.992 380.784 1021.36 372.021 1085.7C359.751 1195.41 494.719 1190.78 424.641 1276.81C395.838 1313.11 362.567 1352.63 323.863 1396.17C236.916 1500.1 216.294 1581.24 229.004 1638.5C226.805 1755.24 356.878 1809.47 488.092 1796.82C564.707 1788.85 641.444 1758.68 693.706 1705.5C763.329 1634.68 820.725 1525.18 937.09 1500.75C1011.26 1481.44 1085.51 1655.73 1220.05 1626.52C1308.89 1608.76 1360.38 1523.59 1428.22 1525.09C1500.67 1526.69 1558.91 1527.58 1591.09 1529.63Z" stroke="#53FC18"/>
<path d="M1521.61 1475.15C1679.26 1507.58 1654.29 1354.16 1571.03 1314.19C1426.18 1244.04 1394.68 1179.35 1368.34 1077.77C1344.88 1030.3 1456.91 1026.69 1480.49 954.532C1504.07 882.37 1401.37 840.563 1453.22 803.048C1532.03 744.239 1561.3 686.362 1557.55 638.553C1557.88 592.984 1525.99 555.052 1477.76 534.807C1432.29 515.972 1372.52 512.926 1311.79 534.306C1225.83 587.889 1103.06 574.656 1044.23 602.846C990.334 643.542 947.516 579.969 848.046 585.17C748.576 590.371 745.72 667.834 679.745 641.056C573.845 595.814 499.343 581.689 449.898 588.584C335.683 595.282 340.734 703.726 414.306 800.724C456.695 859.916 496.115 906.931 520.87 948.743C564.759 997.71 455.934 1044.71 446.831 1100.24C434.589 1193.84 545.762 1191.88 486.352 1265.37C461.376 1297.37 433.155 1331.89 400.785 1369.58C327.933 1461.73 316.571 1532 333.089 1579.26C332.94 1676.51 443.147 1721.36 554.171 1710.16C619.644 1702.86 685.085 1676.79 729.829 1631.25C794.308 1565.68 845.615 1471.09 953.37 1451.18C1018.01 1435.2 1083.05 1581.5 1198.39 1558.01C1275.6 1544.07 1321.64 1473.88 1381.01 1475.19C1443.88 1476.57 1494.18 1475.51 1521.61 1475.15Z" stroke="#53FC18"/>
<path d="M1452.91 1421.4C1579.91 1444.86 1559.19 1319.5 1489.91 1286.33C1353.46 1220.27 1332.2 1160.21 1318 1069.91C1300.13 1030.75 1391.76 1026.2 1412.31 966.803C1432.86 907.409 1352.04 872.173 1393.7 840.755C1457.09 790.878 1478.78 742.22 1472.94 702.595C1471.87 665.526 1444.14 634.676 1403.22 618.95C1364.51 604.352 1314.25 603.362 1263.86 623.757C1187.52 680.888 1057.67 652.704 1001.73 673.663C955.455 705.61 919.168 656.546 838.898 663.27C758.628 669.995 757.168 735.332 706.735 716.862C624.647 684.042 567.741 675.167 530.415 682.762C440.274 689.633 445.968 779.054 505.361 859.914C539.761 910.571 570.586 952.066 587.019 989.282C620.727 1030.17 531.764 1069.65 522.333 1116.22C510.144 1193.46 597.496 1194.19 548.783 1254.95C527.645 1282.56 504.487 1311.98 478.47 1343.71C419.752 1423.83 417.693 1483.04 438.046 1520.19C439.979 1597.69 530.317 1633.07 621.131 1623.37C675.454 1616.78 729.581 1594.89 766.791 1557.13C826.112 1497 871.303 1417.58 970.454 1402.28C1025.56 1389.68 1081.42 1507.62 1177.54 1489.94C1243.11 1479.88 1283.7 1424.86 1334.58 1425.99C1387.87 1427.17 1430.24 1424.17 1452.91 1421.4Z" stroke="#53FC18"/>
<path d="M1383.53 1366.15C1479.84 1380.67 1463.45 1282.72 1408.18 1256.21C1280.12 1193.94 1269.17 1138.17 1267.19 1058.66C1254.93 1027.61 1326.15 1022.02 1343.72 975.064C1361.28 928.109 1302.4 899.298 1333.87 873.783C1381.85 832.531 1395.98 792.816 1388.07 761.165C1385.62 732.398 1362.07 708.482 1328.46 697.217C1296.52 686.801 1255.76 687.895 1215.71 707.453C1148.96 768.523 1011.92 725.249 958.86 739.113C920.171 762.501 890.446 727.714 829.391 736.051C768.337 744.389 768.236 797.956 733.38 787.736C675.161 767.223 635.885 763.591 610.693 771.954C544.652 779.091 550.937 849.965 596.086 915.092C622.458 957.471 644.649 993.66 652.718 1026.48C676.205 1059.48 607.094 1091.71 597.299 1129.58C585.106 1190.89 648.606 1194.28 610.559 1242.64L609.559 1243.99C592.547 1266.98 574.756 1291.02 555.456 1316.48C510.836 1385.04 518.074 1433.51 542.264 1460.73C546.238 1518.9 616.669 1544.94 687.264 1536.64C730.433 1530.69 773.254 1512.83 802.949 1482.64C857.168 1427.56 896.298 1362.86 986.885 1352.03C1032.47 1342.71 1079.08 1432.89 1155.97 1420.88C1209.91 1414.61 1245.08 1374.46 1287.49 1375.39C1331.19 1376.35 1365.62 1371.36 1383.53 1366.15Z" stroke="#53FC18"/>
<path d="M1310.88 1310.81C1376.09 1316.32 1364.06 1246.52 1323.04 1226.86C1203.94 1168.8 1203.31 1117.74 1213.53 1049.62C1206.94 1026.91 1257.43 1020.36 1271.91 986.209C1286.38 952.062 1249.68 929.877 1270.83 910.473C1303.17 878.179 1309.66 847.717 1299.7 824.281C1295.88 804.041 1276.6 787.236 1250.46 780.511C1225.42 774.35 1194.35 777.51 1164.83 796.071C1107.98 860.613 964.378 802.512 914.434 809.153C883.519 823.786 860.476 803.543 818.91 813.412C777.344 823.282 778.621 864.668 759.491 862.771C725.386 854.713 703.91 856.344 690.964 865.404C649.317 872.731 656.191 924.511 686.92 973.417C705.161 1007.2 718.635 1037.82 718.318 1066C731.492 1090.87 682.554 1115.58 672.454 1144.45C660.336 1189.34 699.704 1195.39 672.513 1230.98C659.105 1249.97 646.133 1269.33 632.891 1289.31C602.592 1345.78 619.106 1383.14 647.031 1400.23C653.05 1438.6 703.271 1455.12 753.329 1448.31C785.149 1443.06 816.467 1429.38 838.503 1406.99C887.354 1357.41 920.224 1307.92 1001.83 1301.69C1037.67 1295.74 1074.87 1357.47 1132.19 1351.24C1174.25 1348.84 1203.83 1323.87 1237.56 1324.61C1271.49 1325.36 1297.82 1318.43 1310.88 1310.81Z" stroke="#53FC18"/>
<path d="M1242.54 1258.69C1276.86 1255.22 1269.16 1213.36 1242.26 1200.49C1131.84 1146.54 1141.5 1100.11 1163.9 1043.23C1162.95 1028.8 1192.87 1021.27 1204.29 999.83C1215.71 978.386 1201.06 962.769 1211.96 949.421C1228.77 926.001 1227.66 904.71 1215.63 889.42C1210.43 877.639 1195.37 867.89 1176.62 865.673C1158.43 863.738 1136.95 868.957 1117.86 886.549C1070.78 954.626 920.334 881.682 873.397 881.14C850.17 887.077 833.742 881.282 811.522 892.689C789.302 904.097 791.957 933.411 788.467 939.797C778.336 944.125 774.562 950.998 773.8 960.764C756.389 968.291 763.864 1001.13 780.281 1033.96C790.455 1059.24 795.267 1084.35 786.589 1107.94C789.511 1124.76 760.584 1142 750.161 1161.96C738.094 1190.57 753.485 1199.27 737.061 1222.19C727.523 1236.82 719.648 1251.1 712.796 1265.16C696.715 1309.66 722.511 1336.02 754.216 1343.04C762.285 1361.76 792.459 1368.83 822.144 1363.49C842.714 1358.93 862.627 1349.4 877.071 1334.74C920.666 1290.57 947.36 1256.18 1020.18 1254.5C1046.39 1251.91 1074.26 1285.4 1112.2 1284.93C1142.5 1286.36 1166.57 1276.49 1191.72 1277.04C1215.96 1277.57 1234.28 1268.7 1242.54 1258.69Z" stroke="#53FC18"/>
<rect opacity="0.38" y="1.23706" width="1920" height="406.919" fill="url(#paint0_radial_230_218)"/>
<defs>
<radialGradient id="paint0_radial_230_218" cx="0" cy="0" r="1" gradientUnits="userSpaceOnUse" gradientTransform="translate(996 408.156) rotate(-90.352) scale(406.927 1658.24)">
<stop stop-color="#53FC18"/>
<stop offset="1" stop-color="#0E1013" stop-opacity="0"/>
</radialGradient>
</defs>
</svg>
