<svg width="105" height="65" viewBox="0 0 105 65" fill="none" xmlns="http://www.w3.org/2000/svg">
<path d="M100 20V15H105V20H100ZM100 15V10H105V15H100ZM100 10V5H105V10H100ZM100 5H85V0H105V5H100Z" fill="#53FC18"/>
<path d="M100 65H85V60H105V65H100ZM100 60V55H105V60H100ZM100 55V50H105V55H100ZM100 50V45H105V50H100Z" fill="#53FC18"/>
<path d="M0 20V15H5V20H0ZM0 15V10H5V15H0ZM0 10V5H5V10H0ZM15 5H0V0H20V5H15Z" fill="#53FC18"/>
<path d="M15 65H0V55H5V60H20V65H15ZM0 55V50H5V55H0ZM0 50V45H5V50H0Z" fill="#53FC18"/>
<path d="M90 55H85V45V50H80V40V30H85V35H90V40H95V55H90ZM80 55V50H85V55H80ZM65 55H55V50V45H70V50V55H65ZM75 50V45H80V50H75ZM75 45H70H55V30V20H95V25H90V30H80V35V40V45H75ZM90 20V15H95V20H90ZM85 20H75V15H80V10H95V15H90V20H85ZM65 20H55V15V10H70V20H65Z" fill="white"/>
<path d="M40 55H35V50V45H50V50H45V55H40ZM30 55H25V50V45H35V50V55H30ZM20 55H10V50V45H25V50V55H20ZM45 45H35V35H30V30H35V20H50V25V30H45V35H50V45H45ZM20 45H10V30V20H25V30H30V35H25V45H20ZM45 20H40V15V10H45V15H50V20H45ZM35 20H25V15V10H40V20H35ZM20 20H10V15V10H25V20H20Z" fill="white"/>
</svg>
