<svg width="128" height="128" viewBox="0 0 128 128" fill="none" xmlns="http://www.w3.org/2000/svg">
<path d="M121.905 48.6154V42.4615H128V48.6154H121.905ZM121.905 42.4615V36.3077H128V42.4615H121.905ZM121.905 36.3077V30.1538H128V36.3077H121.905ZM121.905 30.1538H103.619V24H128V30.1538H121.905Z" fill="black"/>
<path d="M121.905 104H103.619V97.8462H128V104H121.905ZM121.905 97.8462V91.6923H128V97.8462H121.905ZM121.905 91.6923V85.5385H128V91.6923H121.905ZM121.905 85.5385V79.3846H128V85.5385H121.905Z" fill="black"/>
<path d="M0 48.6154V42.4615H6.09524V48.6154H0ZM0 42.4615V36.3077H6.09524V42.4615H0ZM0 36.3077V30.1538H6.09524V36.3077H0ZM18.2857 30.1538H0V24H24.381V30.1538H18.2857Z" fill="black"/>
<path d="M18.2857 104H0V91.6923H6.09524V97.8462H24.381V104H18.2857ZM0 91.6923V85.5385H6.09524V91.6923H0ZM0 85.5385V79.3846H6.09524V85.5385H0Z" fill="black"/>
<path d="M109.714 91.6923H103.619V79.3846V85.5385H97.5238V73.2308V60.9231H103.619V67.0769H109.714V73.2308H115.81V91.6923H109.714ZM97.5238 91.6923V85.5385H103.619V91.6923H97.5238ZM79.2381 91.6923H67.0476V85.5385V79.3846H85.3333V85.5385V91.6923H79.2381ZM91.4286 85.5385V79.3846H97.5238V85.5385H91.4286ZM91.4286 79.3846H85.3333H67.0476V60.9231V48.6154H115.81V54.7692H109.714V60.9231H97.5238V67.0769V73.2308V79.3846H91.4286ZM109.714 48.6154V42.4615H115.81V48.6154H109.714ZM103.619 48.6154H91.4286V42.4615H97.5238V36.3077H115.81V42.4615H109.714V48.6154H103.619ZM79.2381 48.6154H67.0476V42.4615V36.3077H85.3333V48.6154H79.2381Z" fill="black"/>
<path d="M48.7619 91.6923H42.6666V85.5385V79.3846H60.9523V85.5385H54.8571V91.6923H48.7619ZM36.5714 91.6923H30.4761V85.5385V79.3846H42.6666V85.5385V91.6923H36.5714ZM24.3809 91.6923H12.1904V85.5385V79.3846H30.4761V85.5385V91.6923H24.3809ZM54.8571 79.3846H42.6666V67.0769H36.5714V60.9231H42.6666V48.6154H60.9523V54.7692V60.9231H54.8571V67.0769H60.9523V79.3846H54.8571ZM24.3809 79.3846H12.1904V60.9231V48.6154H30.4761V60.9231H36.5714V67.0769H30.4761V79.3846H24.3809ZM54.8571 48.6154H48.7619V42.4615V36.3077H54.8571V42.4615H60.9523V48.6154H54.8571ZM42.6666 48.6154H30.4761V42.4615V36.3077H48.7619V48.6154H42.6666ZM24.3809 48.6154H12.1904V42.4615V36.3077H30.4761V48.6154H24.3809Z" fill="black"/>
</svg>
